<svg id="Logo" xmlns="http://www.w3.org/2000/svg" viewBox="0 0 502.92 103.82"><defs><style>.cls-1{fill:#5eb3e4;}.cls-2{fill:#238dc1;}.cls-3{fill:#00538b;}.cls-4{fill:#fff;}</style></defs><path class="cls-1" d="M3.64,65.64c.21.5.44,1,.67,1.48.15.32.31.64.47,1l.31.59c.41.8.85,1.58,1.31,2.35h0A45.15,45.15,0,0,0,9.7,75.8l2.82.56a35,35,0,0,0,7.12.66c6.77,0,14-1.58,20.93-3.11,7.19-1.58,14.63-3.21,21.87-3.21a35.5,35.5,0,0,1,18.23,4.58l.31.18a44.43,44.43,0,0,0,2.77-4c.08-.13.16-.26.23-.39.32-.53.63-1.06.93-1.61l.07-.12a1.14,1.14,0,0,1,.1-.19C60.37,50.13,28.91,80.43,3.64,65.64Z" transform="translate(0 -2.64)"/><path class="cls-2" d="M41.89,76.05C34.68,77.64,27.22,79.29,20,79.29A40.71,40.71,0,0,1,12,78.55a45.21,45.21,0,0,0,9.47,7.79L24.75,86c4.83-.57,9.87-1.69,14.75-2.77,7.24-1.6,14.73-3.26,22-3.26a37.85,37.85,0,0,1,11.74,1.72l1.41.46a46.09,46.09,0,0,0,4.79-4.79,30.76,30.76,0,0,0-16.63-4.4C56.06,72.93,48.86,74.52,41.89,76.05Z" transform="translate(0 -2.64)"/><path class="cls-3" d="M40.85,85.4a161.29,161.29,0,0,1-15.93,2.84A45.18,45.18,0,0,0,72.28,84a28.6,28.6,0,0,0-10.41-1.73C55.29,82.31,48,83.88,40.85,85.4Z" transform="translate(0 -2.64)"/><path class="cls-4" d="M34.62,65.78l.05,0,2.44-.53.11,0,2.42-.56.08,0,2.42-.57c7.55-1.81,15.36-3.67,22.93-3.67.69,0,1.36,0,2,0l.49,0c.66,0,1.32.09,2,.16h0c.66.07,1.32.17,2,.27l.38.07c.63.11,1.26.23,1.88.37h0c-2.55-3.91-4.43-7-4.43-7C51.36,27,38.7,22.16,33.18,21.52A4.86,4.86,0,0,0,29,22.74a4.71,4.71,0,0,0-.66,4c1.17,5.36.26,27.09-6.09,40.8A77.68,77.68,0,0,0,34.62,65.78Zm4-38.42c9,3.3,18.62,15.9,25,26a.24.24,0,0,1-.39.28c-4.76-6-3.83-5.91-12.08-15C48.79,36,43.26,30,37.91,27.75c-.63-.26-1.09-.45-1.06-.69C36.9,26.64,38.08,27.15,38.65,27.36Z" transform="translate(0 -2.64)"/><path class="cls-4" d="M4.79,63.67A27.8,27.8,0,0,0,13.62,67,36.92,36.92,0,1,1,82.13,47.85,36.65,36.65,0,0,1,78.89,63a32.53,32.53,0,0,1,7.22,4.13A45.21,45.21,0,1,0,2.36,62.25Z" transform="translate(0 -2.64)"/><path class="cls-4" d="M384.08,57a14,14,0,0,0,5.69-4.65c2.54-3.59,3.06-7.71,2.75-12-.39-5.36-2.37-9.83-6.83-12.78A17.13,17.13,0,0,0,376,25c-10.32,0-35.55,0-35.87,0V70.72H351V36.53c.23,0,18.39-.07,25.34,0,3.14,0,5.05,2.05,5.4,5.33s-1.25,6-4.09,6.66a9.53,9.53,0,0,1-2.14.2c-4.68,0-13,0-17.67,0-.87,0-1.2.16-1.18,1.17.05,2.07,0,7.63,0,8.61.45,0,10.43,0,13.27-.08a2.14,2.14,0,0,1,1.83.95c2.92,3.57,5.88,7.1,8.81,10.66a1.69,1.69,0,0,0,1.52.68c4.55,0,14.17,0,14.73,0l-13-13.37-.24-.24A3.27,3.27,0,0,0,384.08,57Z" transform="translate(0 -2.64)"/><path class="cls-4" d="M107.89,45.34a23.73,23.73,0,0,1,3.9-11.1,20.2,20.2,0,0,1,15.46-9,90.35,90.35,0,0,1,19,.08,20.79,20.79,0,0,1,18.24,17.8,31,31,0,0,1,.38,4.83v-.14a31,31,0,0,1-.38,4.83,20.79,20.79,0,0,1-18.24,17.8,89.68,89.68,0,0,1-19,.07,20.16,20.16,0,0,1-15.46-9A22.94,22.94,0,0,1,108,50.79,29.83,29.83,0,0,1,107.89,45.34Zm11.55,2.39c0,5.93,4.12,10.89,9.82,11.24a126.92,126.92,0,0,0,13.93,0,10.88,10.88,0,0,0,10.23-11.27v.14A10.88,10.88,0,0,0,143.19,36.6a122.14,122.14,0,0,0-13.93,0c-5.7.35-9.84,5.3-9.82,11.24Z" transform="translate(0 -2.64)"/><path class="cls-4" d="M235.31,36.47V59.08c.46,0,25.83,0,35.22,0,.88,0,1.19.19,1.17,1.13-.05,3.17,0,6.33,0,9.49v1H223.81V25h47.87V36.47Z" transform="translate(0 -2.64)"/><path class="cls-4" d="M217.41,59.08V70.71c-.3,0-17.18.1-25.32.05-9.84-.07-18-5.66-21.16-14.88-2.81-8.24-2.06-16.2,3.5-23.18,3.71-4.67,8.79-6.94,14.6-7.61,1.3-.15,27.88-.05,28.34-.05V36.5c-.41,0-17.14,0-25.13,0-4.53,0-8.08,1.94-10.1,6.12-3.42,7,.4,16.38,9.9,16.43,8,0,16,0,24.06,0Z" transform="translate(0 -2.64)"/><path class="cls-4" d="M445.85,59.08V70.71c-.31,0-17.4.06-25.66,0-10-.06-18.25-5.61-21.43-14.83-2.84-8.24-2.08-16.2,3.55-23.18,3.76-4.67,8.91-6.94,14.79-7.61,1.31-.15,28.25-.13,28.71-.13V36.5c-.41,0-17.36,0-25.46,0-4.59,0-8.18,1.94-10.23,6.12-3.47,7,.4,16.38,10,16.43C428.27,59.11,445.33,59.08,445.85,59.08Z" transform="translate(0 -2.64)"/><path class="cls-4" d="M463.8,25V70.72H452.31V25Z" transform="translate(0 -2.64)"/><path class="cls-4" d="M268.41,43.2v8.55h-27.5V43.2Z" transform="translate(0 -2.64)"/><path class="cls-4" d="M320.06,64.21a1.39,1.39,0,0,0-1.41-.82c-4.93,0-15.32,0-20.25,0h-1.14c.16-.34,3.23-5.61,4.62-8a1.26,1.26,0,0,1,1.28-.72c1.86,0,9.16,0,11.26,0-2.22-3.76-6.29-10.23-8.49-14-1.33,2.28-13.19,21.67-17.6,29.23a1.37,1.37,0,0,1-1.4.79c-4,0-8,0-12.26,0C275,70.14,291.8,42.09,300,28.48a13.75,13.75,0,0,1,2.22-2.81,5.21,5.21,0,0,1,7.29,0,11.2,11.2,0,0,1,2,2.48C319.91,42,337,70.4,337.12,70.71c-.35,0-13.12,0-13.12,0Z" transform="translate(0 -2.64)"/><path class="cls-4" d="M502.92,70.72H491.43V52.41H469.49V42.62c.35,0,15.76,0,20.8,0,.84,0,1.12-.19,1.11-1.09,0-5.07,0-16.16,0-16.59h11.54Z" transform="translate(0 -2.64)"/><path class="cls-1" d="M195.94,92v3.63h6.81v3.5h-6.81V106h-4.2V88.4h11.58V92Z" transform="translate(0 -2.64)"/><path class="cls-1" d="M217.14,106l-1.37-3.45H209L207.67,106h-4.62l7.38-17.59h4.12L221.86,106ZM212.41,93.1l-2.23,6h4.42Z" transform="translate(0 -2.64)"/><path class="cls-1" d="M235.47,105.68a9.29,9.29,0,0,1-3.95.79,10.22,10.22,0,0,1-3.76-.68,8.64,8.64,0,0,1-5-4.84,10.32,10.32,0,0,1,0-7.6,8.44,8.44,0,0,1,2-2.92,9,9,0,0,1,3-1.85,10.76,10.76,0,0,1,3.76-.65,10.56,10.56,0,0,1,3.66.66,7,7,0,0,1,2.92,1.92L235.3,93.4a3.52,3.52,0,0,0-1.57-1.22,5.21,5.21,0,0,0-4,0,4.74,4.74,0,0,0-1.61,1.13,5.32,5.32,0,0,0-1,1.7,6,6,0,0,0-.37,2.15,6.14,6.14,0,0,0,.37,2.19,5.09,5.09,0,0,0,1,1.7,4.8,4.8,0,0,0,1.58,1.11,5.07,5.07,0,0,0,2,.39,4.68,4.68,0,0,0,2.21-.49,4.27,4.27,0,0,0,1.52-1.29l3,2.78A8.37,8.37,0,0,1,235.47,105.68Z" transform="translate(0 -2.64)"/><path class="cls-1" d="M249.54,92v14h-4.25V92h-5V88.4h14.19V92Z" transform="translate(0 -2.64)"/><path class="cls-1" d="M266.73,93a3.78,3.78,0,0,0-1.43-1.1,3.92,3.92,0,0,0-1.7-.41,5.07,5.07,0,0,0-.86.07,2.21,2.21,0,0,0-.78.29,1.79,1.79,0,0,0-.58.55,1.4,1.4,0,0,0-.24.85,1.35,1.35,0,0,0,.19.75,1.59,1.59,0,0,0,.54.52,4.6,4.6,0,0,0,.86.41c.33.12.7.25,1.12.38.59.2,1.22.42,1.86.66a6.87,6.87,0,0,1,1.77,1,4.91,4.91,0,0,1,1.31,1.48,4.24,4.24,0,0,1,.52,2.2,5.78,5.78,0,0,1-.55,2.62,5.27,5.27,0,0,1-1.51,1.82,6.25,6.25,0,0,1-2.16,1.07,9.17,9.17,0,0,1-2.51.35,10.3,10.3,0,0,1-3.65-.66,7.73,7.73,0,0,1-2.93-1.87l2.78-2.84a5.09,5.09,0,0,0,1.7,1.33,4.33,4.33,0,0,0,3,.44,2.5,2.5,0,0,0,.78-.32,1.65,1.65,0,0,0,.54-.6,1.93,1.93,0,0,0,.2-.9,1.44,1.44,0,0,0-.25-.84,2.46,2.46,0,0,0-.71-.63,6.1,6.1,0,0,0-1.14-.53l-1.56-.51a14.41,14.41,0,0,1-1.65-.64,5.49,5.49,0,0,1-1.44-1,4.56,4.56,0,0,1-1-1.41,4.78,4.78,0,0,1-.38-2,5,5,0,0,1,.59-2.51A5.15,5.15,0,0,1,259,89.25a6.45,6.45,0,0,1,2.18-1,9.89,9.89,0,0,1,2.46-.32,9.28,9.28,0,0,1,3.05.55,7.87,7.87,0,0,1,2.72,1.62Z" transform="translate(0 -2.64)"/><path class="cls-1" d="M298.66,97.12a9.85,9.85,0,0,1-.72,3.82,8.63,8.63,0,0,1-5.05,4.85,11.07,11.07,0,0,1-7.64,0,9,9,0,0,1-3-1.9,8.71,8.71,0,0,1-2-3,9.85,9.85,0,0,1-.72-3.82,9.69,9.69,0,0,1,.72-3.81,8.4,8.4,0,0,1,2-2.9,9.1,9.1,0,0,1,3-1.83,11.55,11.55,0,0,1,7.64,0,8.9,8.9,0,0,1,3.05,1.83,8.4,8.4,0,0,1,2,2.9A9.69,9.69,0,0,1,298.66,97.12Zm-4.55,0a6,6,0,0,0-.37-2.13,5.14,5.14,0,0,0-1-1.71,4.74,4.74,0,0,0-1.59-1.11,4.94,4.94,0,0,0-2.05-.41,4.83,4.83,0,0,0-2,.41,5,5,0,0,0-1.59,1.11,4.83,4.83,0,0,0-1,1.71,6.6,6.6,0,0,0,0,4.33,5.23,5.23,0,0,0,1,1.73,4.71,4.71,0,0,0,1.58,1.13,5,5,0,0,0,2,.41,5.06,5.06,0,0,0,2-.41,4.86,4.86,0,0,0,1.59-1.13,5.25,5.25,0,0,0,1-1.73A6.23,6.23,0,0,0,294.11,97.12Z" transform="translate(0 -2.64)"/><path class="cls-1" d="M309.89,106h-4.25L299,88.4h4.77l4.08,12.48h.1L312,88.4h4.69Z" transform="translate(0 -2.64)"/><path class="cls-1" d="M319.11,106V88.4h11.83V92h-7.73v3.33h7.3v3.4h-7.3v3.66h8.17V106Z" transform="translate(0 -2.64)"/><path class="cls-1" d="M343.61,106l-3.82-7h-1.45v7h-4.15V88.4h6.71a11.9,11.9,0,0,1,2.47.26,6.5,6.5,0,0,1,2.16.88,4.72,4.72,0,0,1,1.53,1.64,5.16,5.16,0,0,1,.57,2.54,4.68,4.68,0,0,1-1,3A5.21,5.21,0,0,1,344,98.46l4.6,7.53Zm-.18-12.2a1.69,1.69,0,0,0-.26-1,1.76,1.76,0,0,0-.67-.6,3.06,3.06,0,0,0-.93-.28,6.8,6.8,0,0,0-1-.08h-2.27v4.1h2a6.62,6.62,0,0,0,1.07-.09,3.16,3.16,0,0,0,1-.31,2,2,0,0,0,.74-.64A1.93,1.93,0,0,0,343.43,93.79Z" transform="translate(0 -2.64)"/><path class="cls-1" d="M363.06,92v3.63h6.81v3.5h-6.81V106h-4.2V88.4h11.58V92Z" transform="translate(0 -2.64)"/><path class="cls-1" d="M373.67,106V88.4H385.5V92h-7.73v3.33h7.31v3.4h-7.31v3.66H386V106Z" transform="translate(0 -2.64)"/><path class="cls-1" d="M402.17,106l-1.36-3.45H394L392.71,106h-4.63l7.38-17.59h4.13l7.3,17.59ZM397.45,93.1l-2.24,6h4.43Z" transform="translate(0 -2.64)"/><path class="cls-1" d="M418.27,106l-3.82-7H413v7h-4.15V88.4h6.7a12,12,0,0,1,2.48.26,6.68,6.68,0,0,1,2.16.88,4.72,4.72,0,0,1,1.53,1.64,5.16,5.16,0,0,1,.57,2.54,4.74,4.74,0,0,1-1,3,5.25,5.25,0,0,1-2.68,1.73l4.59,7.53Zm-.17-12.2a1.77,1.77,0,0,0-.26-1,1.78,1.78,0,0,0-.68-.6,2.91,2.91,0,0,0-.92-.28,6.83,6.83,0,0,0-1-.08H413v4.1h2a6.74,6.74,0,0,0,1.08-.09,3.1,3.1,0,0,0,1-.31,1.91,1.91,0,0,0,.74-.64A1.93,1.93,0,0,0,418.1,93.79Z" transform="translate(0 -2.64)"/></svg>